#!OML:ASF H:\BreakDance\Project 1\Capture day 1\Session 1\Male.ASF
:FULLY-SPECIFIED
:DEGREES
358
root 6.48015 16.488 -2.43494 7.38266 -41.6184 4.65074
lowerback -1.89902 -2.48463 -4.02973
upperback 2.70321 -3.15408 -0.613069
thorax 4.03915 -1.68282 1.4457
lowerneck -4.35535 -9.4982 -4.68592
upperneck 8.93895 -13.3225 8.68879
head 4.28753 -6.36258 2.6436
rclavicle 3.93594e-014 4.57205e-015
rhumerus -37.3225 18.5478 -81.371
rradius 45.2008
rwrist 0.279054
rhand -26.8371 -29.123
rfingers 7.12502
rthumb -0.26274 -59.1026
lclavicle 3.93594e-014 4.57205e-015
lhumerus -41.2722 -7.96344 87.4184
lradius 39.0092
lwrist 7.98013
lhand -20.8755 -17.7585
lfingers 7.12502
lthumb 5.49455 12.1503
rfemur -30.6904 -9.96842 2.88278
rtibia 48.4608
rfoot -8.94898 -7.01923
rtoes -3.58662
lfemur -17.2709 7.55709 -15.1865
ltibia 55.4972
lfoot -17.7755 5.66881
ltoes -22.0456
359
root 6.40521 16.4673 -2.48563 7.23938 -42.4763 4.55521
lowerback -1.2677 -2.50212 -3.83326
upperback 2.88707 -3.21586 -0.489357
thorax 3.87182 -1.71116 1.48463
lowerneck -4.33387 -9.21702 -4.47116
upperneck 8.55293 -12.921 8.66281
head 4.1236 -6.16953 2.64317
rclavicle -8.4732e-014 8.64713e-015
rhumerus -35.962 19.407 -81.1135
rradius 45.5102
rwrist 0.423832
rhand -26.8698 -29.2228
rfingers 7.12502
rthumb -0.294343 -59.2024
lclavicle -8.4732e-014 8.64713e-015
lhumerus -40.8783 -10.6281 88.5174
lradius 41.2581
lwrist 5.68797
lhand -20.4284 -18.764
lfingers 7.12502
lthumb 5.92625 11.1331
rfemur -31.2512 -9.83075 3.08004
rtibia 48.0735
rfoot -8.64453 -6.78889
rtoes -7.41805
lfemur -17.8329 7.51307 -15.0354
ltibia 57.2315
lfoot -17.5395 4.58106
ltoes -22.3274
360
root 6.3329 16.4366 -2.53696 7.09192 -43.3539 4.42972
lowerback -0.619425 -2.50085 -3.60019
upperback 3.095 -3.25068 -0.389441
thorax 3.71483 -1.72543 1.48085
lowerneck -4.29284 -8.93964 -4.22754
upperneck 8.13318 -12.5269 8.65246
head 3.94728 -5.98016 2.64269
rclavicle -3.49861e-014 5.86415e-015
rhumerus -34.5256 20.2403 -80.8654
rradius 45.7328
rwrist 0.518184
rhand -26.883 -29.302
rfingers 7.12502
rthumb -0.307064 -59.2815
lclavicle -3.49861e-014 5.86415e-015
lhumerus -40.4156 -13.2536 89.2862
lradius 43.5726
lwrist 3.80283
lhand -20.1277 -19.7649
lfingers 7.12502
lthumb 6.21655 10.1239
rfemur -31.7741 -9.77157 3.32336
rtibia 47.8976
rfoot -8.54598 -6.4479
rtoes -11.2966
lfemur -18.4013 7.48639 -14.8552
ltibia 58.9909
lfoot -17.324 3.25862
ltoes -22.4119
361
root 6.26327 16.3965 -2.58902 6.92772 -44.2466 4.29367
lowerback 0.0498698 -2.47965 -3.33903
upperback 3.32373 -3.25647 -0.316047
thorax 3.56286 -1.72465 1.43613
lowerneck -4.24509 -8.66598 -3.96343
upperneck 7.6964 -12.1383 8.64094
head 3.76518 -5.79389 2.63748
rclavicle -5.46658e-015 1.85864e-014
rhumerus -33.0181 21.0501 -80.6168
rradius 45.8669
rwrist 0.540885
rhand -26.8911 -29.3514
rfingers 7.12502
rthumb -0.31495 -59.331
lclavicle -5.46658e-015 1.85864e-014
lhumerus -39.7081 -15.7462 89.7458
lradius 45.7496
lwrist 2.25305
lhand -20.0176 -20.7501
lfingers 7.12502
lthumb 6.32286 9.1355
rfemur -32.2492 -9.75151 3.59535
rtibia 47.95
rfoot -8.61248 -5.9988
rtoes -15.0039
lfemur -18.9679 7.49146 -14.6566
ltibia 60.7471
lfoot -17.1052 1.87525
ltoes -22.6325
362
root 6.19636 16.3476 -2.6412 6.72924 -45.1487 4.18676
lowerback 0.717611 -2.42586 -3.05891
upperback 3.57108 -3.21463 -0.286893
thorax 3.42531 -1.6995 1.33623
lowerneck -4.1703 -8.41184 -3.6477
upperneck 7.23277 -11.7762 8.60723
head 3.56933 -5.62194 2.6164
rclavicle 2.23633e-015 9.29318e-015
rhumerus -31.4603 21.7629 -80.3634
rradius 45.9151
rwrist 0.512682
rhand -26.9184 -29.37
rfingers 7.12502
rthumb -0.341285 -59.3495
lclavicle 2.23633e-015 9.29318e-015
lhumerus -38.7896 -18.1907 89.907
lradius 47.813
lwrist 1.08148
lhand -20.0994 -21.7479
lfingers 7.12502
lthumb 6.24389 8.14007
rfemur -32.682 -9.73923 3.85707
rtibia 48.2315
rfoot -8.81444 -5.40756
rtoes -18.5064
lfemur -19.5364 7.5271 -14.4713
ltibia 62.4774
lfoot -16.8661 0.504266
ltoes -23.0372
363
root 6.13214 16.291 -2.69224 6.50112 -46.0545 4.12582
lowerback 1.35061 -2.33254 -2.75209
upperback 3.83489 -3.11476 -0.308021
thorax 3.31824 -1.6444 1.16827
lowerneck -4.08796 -8.19323 -3.30832
upperneck 6.54433 -11.432 8.32097
head 3.64427 -5.49002 2.79643
rclavicle 7.17613e-014 -1.20762e-014
rhumerus -29.8738 22.3171 -80.0985
rradius 45.886
rwrist 0.478425
rhand -26.9762 -29.348
rfingers 7.12502
rthumb -0.397059 -59.3274
lclavicle 7.17613e-014 -1.20762e-014
lhumerus -37.6181 -20.585 89.7812
lradius 49.7172
lwrist 0.267761
lhand -20.3241 -22.755
lfingers 7.12502
lthumb 6.02694 7.13931
rfemur -33.095 -9.71398 4.08902
rtibia 48.7261
rfoot -9.18077 -4.65843
rtoes -21.9089
lfemur -20.1159 7.5781 -14.3141
ltibia 64.168
lfoot -16.607 -0.79191
ltoes -23.6243
364
root 6.07043 16.2276 -2.74039 6.25972 -46.9547 4.11242
lowerback 1.92005 -2.21767 -2.41907
upperback 4.11184 -2.98072 -0.35771
thorax 3.25793 -1.57142 0.952163
lowerneck -3.93258 -8.00762 -2.93792
upperneck 6.05397 -11.1639 8.27717
head 3.39452 -5.36505 2.74331
rclavicle 3.20043e-014 1.44119e-015
rhumerus -28.2663 22.7629 -79.807
rradius 45.7988
rwrist 0.458313
rhand -27.0289 -29.2674
rfingers 7.12502
rthumb -0.448029 -59.2467
lclavicle 3.20043e-014 1.44119e-015
lhumerus -36.1622 -22.8709 89.3914
lradius 51.4351
lwrist -0.206511
lhand -20.6835 -23.709
lfingers 7.12502
lthumb 5.67998 6.19484
rfemur -33.5203 -9.70233 4.29281
rtibia 49.4053
rfoot -9.75669 -3.78789
rtoes -25.2267
lfemur -20.7163 7.62497 -14.1891
ltibia 65.8107
lfoot -16.3342 -1.94511
ltoes -24.3532
365
root 6.0107 16.1588 -2.7839 6.02148 -47.8416 4.1552
lowerback 2.393 -2.09269 -2.06872
upperback 4.39324 -2.8277 -0.420792
thorax 3.2567 -1.48821 0.706774
lowerneck -3.76829 -7.84409 -2.56652
upperneck 5.57481 -10.9223 8.19328
head 3.14932 -5.25497 2.67446
rclavicle 4.02663e-014 -6.26172e-015
rhumerus -26.6597 23.1182 -79.483
rradius 45.6734
rwrist 0.484903
rhand -27.033 -29.1134
rfingers 7.12502
rthumb -0.451953 -59.0926
lclavicle 4.02663e-014 -6.26172e-015
lhumerus -34.4934 -24.9925 88.7659
lradius 53.0181
lwrist -0.398112
lhand -21.2593 -24.7302
lfingers 7.12502
lthumb 5.12395 5.18788
rfemur -34.005 -9.77016 4.4779
rtibia 50.2351
rfoot -10.5427 -2.86763
rtoes -28.1126
lfemur -21.3592 7.65619 -14.1085
ltibia 67.4032
lfoot -16.0461 -3.01292
ltoes -24.8788
366
root 5.95247 16.086 -2.82156 5.82663 -48.7114 4.22493
lowerback 2.75818 -1.96802 -1.68012
upperback 4.66037 -2.67008 -0.489795
thorax 3.30176 -1.40064 0.428409
lowerneck -3.57945 -7.68791 -2.23431
upperneck 5.12867 -10.6913 8.1221
head 2.91892 -5.15109 2.61638
rclavicle 7.27676e-014 -1.0461e-014
rhumerus -25.0867 23.3769 -79.1494
rradius 45.5193
rwrist 0.607321
rhand -26.9593 -28.8943
rfingers 7.12502
rthumb -0.380761 -58.8737
lclavicle 7.27676e-014 -1.0461e-014
lhumerus -32.7556 -26.9095 87.9113
lradius 54.5691
lwrist -0.336271
lhand -22.0305 -25.7029
lfingers 7.12502
lthumb 4.37929 4.23185
rfemur -34.5963 -9.98571 4.69119
rtibia 51.1839
rfoot -11.4883 -1.97627
rtoes -30.3044
lfemur -22.0625 7.67162 -14.0516
ltibia 68.9481
lfoot -15.7556 -3.94659
ltoes -25.1849
367
root 5.89622 16.0099 -2.85283 5.74739 -49.5648 4.24762
lowerback 3.01554 -1.8485 -1.18916
upperback 4.89612 -2.51442 -0.566424
thorax 3.37296 -1.30901 0.080618
lowerneck -3.37365 -7.51607 -2.01798
upperneck 4.76542 -10.4483 8.17943
head 2.73311 -5.03935 2.62144
rclavicle 9.2379e-014 -1.98039e-014
rhumerus -23.5675 23.5293 -78.8503
rradius 45.3306
rwrist 0.830433
rhand -26.8539 -28.6331
rfingers 7.12502
rthumb -0.278936 -58.6126
lclavicle 9.2379e-014 -1.98039e-014
lhumerus -30.9008 -28.5564 86.8563
lradius 55.9741
lwrist -0.107219
lhand -22.9945 -26.6291
lfingers 7.12502
lthumb 3.44845 3.32271
rfemur -35.3334 -10.399 5.01129
rtibia 52.2265
rfoot -12.5169 -1.15389
rtoes -31.6565
lfemur -22.8373 7.6711 -13.96
ltibia 70.4534
lfoot -15.4886 -4.72967
ltoes -25.2245
